<svg id="Layer_1" enable-background="new 0 0 512.008 512.008" height="512" viewBox="0 0 512.008 512.008" width="512" xmlns="http://www.w3.org/2000/svg"><g><path d="m460.268 262.94-8.93 8.93-211.2-211.2 8.93-8.93c58.32-58.32 152.88-58.32 211.2 0 58.319 58.318 58.322 152.878 0 211.2z" fill="#e48c9b"/><path d="m447.586 40.423c46.8 58.742 42.856 144.343-11.317 198.517l-8.93 8.93 24 24 8.93-8.93c62.888-62.889 57.345-166.722-12.683-222.517z" fill="#cc5b6f"/><path d="m451.339 271.87c-10.565 10.565-84.595 84.595-95.73 95.73l-211.2-211.2 95.73-95.73z" fill="#f1cc76"/><path d="m428.839 249.37-95.73 95.73 22.5 22.5c9.777-9.777 86.247-86.247 95.73-95.73z" fill="#ebb15d"/><path d="m355.609 367.6-71.31 71.3c-11.66 11.67-30.57 11.67-42.24 0-20.842-20.842-155.601-155.6-168.95-168.95-11.67-11.67-11.67-30.58 0-42.24l71.3-71.31z" fill="#79cb9c"/><path d="m333.609 345.6-71.31 71.3c-11.66 11.67-30.57 11.67-42.24 0l22 22c11.67 11.67 30.58 11.67 42.24 0l71.31-71.3c-268.643-268.643-286.583-286.582-22-22z" fill="#63ac7d"/><path d="m185.748 382.59-112.819 112.81c-11.509 11.51-30.103 11.418-41.52 0-15.091-15.091-18.211-17.235-21.17-24.32-4.501-10.883-2.095-23.535 6.37-32l112.82-112.81z" fill="#ebb19c"/><path d="m166.748 363.59-112.819 112.81c-10.718 10.719-27.713 11.454-39.312 1.994 1.287 1.578.57.784 16.792 17.006 11.425 11.425 30.019 11.502 41.52 0l112.82-112.81z" fill="#e58d72"/><path d="m512.008 157.34c0-86.957-70.368-157.34-157.34-157.34-42.028 0-81.54 16.366-111.256 46.083-6.132 6.132-166.258 166.261-175.962 175.966-14.765 14.765-14.765 38.789 0 53.554l50.666 50.666-107.165 107.156c-14.601 14.597-14.602 38.228-.001 52.831l14.803 14.802c14.597 14.599 38.227 14.603 52.83.002l107.167-107.158 50.657 50.657c14.798 14.798 38.751 14.8 53.552 0 46.902-46.902 129.054-129.057 175.966-175.962 29.717-29.717 46.083-69.229 46.083-111.257zm-157.34-141.34c78.114 0 141.34 63.213 141.34 141.34 0 37.755-14.702 73.248-41.397 99.943l-3.271 3.27-199.884-199.886 3.27-3.27c26.695-26.695 62.188-41.397 99.942-41.397zm.939 340.284-199.883-199.882c92.352-92.352 83.211-83.214 84.418-84.421l199.885 199.885c-115.456 115.439-29.338 29.335-84.42 84.418zm-288.337 133.461c-8.347 8.346-21.855 8.347-30.203-.001l-14.803-14.802c-8.346-8.347-8.348-21.856 0-30.203l107.165-107.157 45.006 45.006zm211.376-56.5c-8.545 8.546-22.378 8.548-30.925 0l-168.958-168.957c-8.526-8.525-8.526-22.399 0-30.925l65.647-65.647 199.883 199.881z"/></g></svg>